<?xml version="1.0" encoding="UTF-8"?>
<svg version="1.1" xmlns="http://www.w3.org/2000/svg" width="896" height="489">
<path d="M0 0 C0.75796875 0.53109375 1.5159375 1.0621875 2.296875 1.609375 C2.85890625 2.06828125 3.4209375 2.5271875 4 3 C4 3.66 4 4.32 4 5 C4.66 5 5.32 5 6 5 C10.91740222 9.91740222 13.08924997 16.37901067 13.375 23.25 C12.88720386 28.12796136 11.40997957 30.59002043 8 34 C1.33118299 34.95268814 -1.8354232 33.12054834 -7.36328125 29.53125 C-18.05586021 23.32163377 -31.30668941 23.02838359 -43 26 C-62.83166232 32.3135459 -76.62899863 47.45851499 -86.25292969 65.32617188 C-92.81375046 78.07556827 -99.22294448 91.71205231 -99.0625 106.3125 C-99.05347656 107.38113281 -99.04445313 108.44976562 -99.03515625 109.55078125 C-99.01775391 110.76314453 -99.01775391 110.76314453 -99 112 C-94.65584598 113.27769236 -92.09312313 112.93158619 -88 111 C-85.44627233 108.97717311 -83.20056036 106.7140678 -80.9375 104.375 C-80.33873047 103.78332031 -79.73996094 103.19164062 -79.12304688 102.58203125 C-75.4385698 98.84509175 -72.609436 95.07309224 -70.04516602 90.49072266 C-69.52780884 89.75281494 -69.52780884 89.75281494 -69 89 C-68.34 89 -67.68 89 -67 89 C-66.76410156 88.33871094 -66.52820313 87.67742187 -66.28515625 86.99609375 C-64.9679 83.92516505 -63.40586633 81.15719824 -61.72509766 78.27612305 C-56.66921406 69.58410626 -52.6222114 60.74684195 -49.04467773 51.34985352 C-45.96898683 43.39448158 -42.8563726 38.67335642 -34.96875 35.01953125 C-24.99609193 31.59471052 -15.41568594 32.46297862 -6 37 C0.47627427 40.74998909 5.58925321 45.76775962 8 53 C8.59039536 61.18962713 6.67092459 68.41701719 4.625 76.3125 C0.18525585 93.4365829 0.18525585 93.4365829 -1.1875 111 C-1.18105469 112.2375 -1.17460938 113.475 -1.16796875 114.75 C-1.03281064 117.36515224 -0.77562899 119.51798722 0 122 C8.57920222 123.68771191 15.01925194 122.18639133 22.41796875 117.453125 C24.71482494 115.72949454 26.86191418 113.9163584 29 112 C29.65484375 111.43796875 30.3096875 110.8759375 30.984375 110.296875 C35.48254167 106.15856166 38.91863823 101.48468645 42.3125 96.4375 C42.73329834 95.81230469 43.15409668 95.18710937 43.58764648 94.54296875 C49.26996449 85.83366428 51.03511816 77.65068683 52.75 67.4375 C52.98511807 66.12294677 53.22079097 64.80849265 53.45703125 63.49414062 C53.77994141 61.60791992 53.77994141 61.60791992 54.109375 59.68359375 C54.30499023 58.54462646 54.50060547 57.40565918 54.70214844 56.23217773 C55.00690837 52.92503288 54.69604194 50.23463777 54 47 C54.66 46.67 55.32 46.34 56 46 C56.75627938 43.3726022 56.75627938 43.3726022 57.2890625 40.171875 C57.50820313 38.97949219 57.72734375 37.78710938 57.953125 36.55859375 C58.17484375 35.30175781 58.3965625 34.04492188 58.625 32.75 C58.85445312 31.50863281 59.08390625 30.26726562 59.3203125 28.98828125 C60.69477453 21.54287904 60.69477453 21.54287904 61 14 C61.66 14 62.32 14 63 14 C63.226875 12.72125 63.45375 11.4425 63.6875 10.125 C65.85638677 0.59685606 70.3345601 -6.88741164 78 -13 C87.15978697 -18.73525681 97.46669639 -19.33576179 107.99609375 -17.46875 C116.01220062 -15.22375203 121.76229709 -11.45111436 126.07421875 -4.19140625 C130.37054497 5.9783786 125.31829644 16.83268322 121.53125 26.30078125 C121.02376277 27.5350627 120.5145193 28.76863333 120 30 C120.33 30.33 120.66 30.66 121 31 C122.35491884 29.50067938 123.70888678 28.00049946 125.0625 26.5 C125.89265625 25.5821875 126.7228125 24.664375 127.578125 23.71875 C129.54195423 21.51419331 131.43050713 19.27329832 133.3125 17 C148.18889605 0.03748864 170.19890746 -12.23739757 192.75 -14.3515625 C206.56211211 -14.68474941 218.71542222 -10.84948678 228.88671875 -1.3984375 C237.77588469 8.69019075 239.52666559 21.07323841 239 34 C238.61141619 37.73750042 238.01257368 41.42265229 237.375 45.125 C237.20186279 46.17469971 237.02872559 47.22439941 236.8503418 48.3059082 C235.77915247 54.70759476 234.62163506 61.09187766 233.43359375 67.47265625 C233.29971252 68.19519592 233.1658313 68.9177356 233.02789307 69.66217041 C232.36964537 73.21148707 231.70311226 76.75878969 231.01904297 80.30322266 C226.08489925 105.78409849 226.08489925 105.78409849 233 130 C237.29726782 134.25296609 242.58854291 134.27984678 248.375 134.4375 C254.66988113 134.27997044 260.14994621 133.31249185 266 131 C266 130.34 266 129.68 266 129 C266.804375 128.95875 267.60875 128.9175 268.4375 128.875 C284.68892249 124.88342255 298.27984892 106.01893278 307.41918945 93.03662109 C316.63031528 79.9688844 316.63031528 79.9688844 323.875 77.3125 C329.75761178 76.44741003 333.97005398 76.68237603 339 80 C342.65331227 83.22652346 344.71313664 85.94219137 346 90.6875 C346.54014666 102.9699654 341.81787938 112.5805807 336 123 C335.47535156 123.969375 334.95070313 124.93875 334.41015625 125.9375 C320.581691 149.58311996 294.0071239 168.59003745 267.67382812 175.62109375 C262.47738293 176.89420202 257.25020913 177.97415753 252 179 C251.2160083 179.17490967 250.4320166 179.34981934 249.62426758 179.5300293 C246.75938646 180.04309062 244.02204031 180.19387336 241.11328125 180.28125 C239.4590918 180.33732422 239.4590918 180.33732422 237.77148438 180.39453125 C235.4537869 180.46520074 233.1360784 180.53550965 230.81835938 180.60546875 C229.71943359 180.64285156 228.62050781 180.68023437 227.48828125 180.71875 C226.48321533 180.74904297 225.47814941 180.77933594 224.44262695 180.81054688 C221.99365687 180.84620934 221.99365687 180.84620934 220 182 C220 181.34 220 180.68 220 180 C219.30777344 179.91363281 218.61554688 179.82726562 217.90234375 179.73828125 C198.82855152 176.9990937 182.59467717 169.55665442 169.99609375 154.625 C163.60994048 146.01817572 160.20754138 136.12907805 157 126 C156.67 126 156.34 126 156 126 C155.51711323 103.18298107 156.87187408 81.16953185 161.08520508 58.69067383 C161.87144083 54.40618993 162.11855879 50.3528012 162 46 C158.34774241 45.4673791 156.16554124 45.25560159 153 47.27734375 C150.88942966 49.09523735 148.93828575 50.99981291 147 53 C146.44699219 53.53238281 145.89398437 54.06476563 145.32421875 54.61328125 C124.97144893 75.74324514 115.33917571 108.20589701 109.07763672 135.98266602 C107.05550821 144.70883564 104.76855302 151.86982348 97 157 C87.25343001 161.63944215 78.08832202 160.69108866 68.05859375 157.32421875 C61.19656437 154.35330182 56.71461407 149.79598648 53.73828125 142.96484375 C51.50167736 137.01240059 50.5424014 131.29471096 50 125 C49.43152344 125.64066406 48.86304688 126.28132812 48.27734375 126.94140625 C45.86677636 129.64172464 43.43665979 132.32321704 41 135 C40.15888672 135.94359375 40.15888672 135.94359375 39.30078125 136.90625 C28.28666676 148.66943525 12.57637452 157.69028621 -3.65332031 158.33422852 C-15.25655585 158.559862 -26.07934687 155.88441565 -35 148 C-35 147.34 -35 146.68 -35 146 C-35.66 146 -36.32 146 -37 146 C-43.12540154 138.52736938 -45.44569591 129.10959776 -48 120 C-50.54655284 122.28452811 -52.38801263 124.91904817 -54.31054688 127.73413086 C-61.62823161 138.42097583 -69.92913265 147.12208573 -81 154 C-81.63164062 154.39960938 -82.26328125 154.79921875 -82.9140625 155.2109375 C-94.85172759 161.96714796 -109.25082756 162.20447156 -122.25 158.8125 C-129.42709805 156.40042751 -136.46480651 152.16618059 -142 147 C-142 146.34 -142 145.68 -142 145 C-142.66 145 -143.32 145 -144 145 C-145.65625 142.515625 -145.65625 142.515625 -147.5 139.25 C-148.41265625 137.64898437 -148.41265625 137.64898437 -149.34375 136.015625 C-150.61709468 133.69717666 -151.84524633 131.37879255 -153 129 C-155.84751688 131.57422579 -157.74224881 134.53233148 -159.8125 137.75 C-169.53667034 152.43332073 -181.90909516 162.96065492 -199.61499023 166.62060547 C-213.47940278 168.82608168 -227.97750688 167.67740154 -240 160.0625 C-251.79357546 151.48143413 -258.59362986 139.53662023 -261.4765625 125.359375 C-262.37623514 119.58535659 -262.78003353 113.83598552 -263 108 C-263.04125 107.12214844 -263.0825 106.24429688 -263.125 105.33984375 C-263.87339717 75.07653312 -255.39692819 41.41827571 -243 14 C-242.56816406 13.03835937 -242.13632812 12.07671875 -241.69140625 11.0859375 C-238.55132333 4.45361283 -235.10473462 -1.6627031 -228.328125 -5.18359375 C-218.87959586 -8.49692025 -207.79740347 -8.81867969 -198 -7 C-197.01 -6.34 -196.02 -5.68 -195 -5 C-193.44205459 -4.261152 -191.87899709 -3.53303948 -190.3125 -2.8125 C-182.1461557 1.28855466 -176.93585192 5.64838233 -173.59375 14.27734375 C-172.05485141 21.33400372 -173.28643789 26.97487735 -175.6328125 33.6171875 C-176.19509783 35.28061537 -176.75718324 36.94411083 -177.3190918 38.60766602 C-177.61455902 39.46804474 -177.91002625 40.32842346 -178.21444702 41.21487427 C-192.45425225 77.96207486 -192.45425225 77.96207486 -193 116 C-191.76645231 117.8223003 -191.76645231 117.8223003 -190 119 C-182.99331754 119.11875733 -179.04861067 116.68659789 -174 112 C-165.12848592 103.07991924 -161.63064623 95.90659163 -159.47836304 83.56503296 C-155.42603274 60.60019472 -147.87122123 39.53216299 -132 22 C-131.20335937 21.04996094 -130.40671875 20.09992188 -129.5859375 19.12109375 C-118.04322889 5.74759299 -104.10584453 -3.90429532 -88 -11 C-86.61361328 -11.62648437 -86.61361328 -11.62648437 -85.19921875 -12.265625 C-56.55965521 -24.50709713 -24.08050688 -19.36544259 0 0 Z M-154 125 C-153 127 -153 127 -153 127 Z " fill="#000000" transform="translate(525,231)"/>
<path d="M0 0 C11.75156718 0.65286484 24.53813081 1.59875447 33.41235352 10.40087891 C35.97027764 13.34152897 37.87380833 16.26346947 39.3125 19.875 C39.63863281 20.65617187 39.96476563 21.43734375 40.30078125 22.2421875 C41.88710921 28.49887765 40.94360576 34.25919983 39.3359375 40.41015625 C39.15711029 41.0962648 38.97828308 41.78237335 38.79403687 42.48927307 C36.86667919 49.74854167 34.63080248 56.91187469 32.36999512 64.07278442 C24.75642673 88.23928342 17.82971108 112.60238655 11 137 C10.68095703 138.13698334 10.68095703 138.13698334 10.35546875 139.29693604 C2.00269549 169.09085646 -4.97885409 199.28939644 -11.0625 229.625 C-11.2817363 230.71281265 -11.2817363 230.71281265 -11.50540161 231.82260132 C-12.98265431 239.19131747 -14.33015025 246.50760653 -15 254 C-14.57332031 253.37996094 -14.14664063 252.75992188 -13.70703125 252.12109375 C-8.11440403 244.19916611 -1.91250121 236.94512625 4.50927734 229.69042969 C5.79456021 228.23296186 7.06477012 226.76222703 8.33203125 225.2890625 C24.76196574 206.2990396 46.45513882 191.80485546 71.78125 189.77734375 C84.4066288 189.35030888 98.60675295 192.39657444 108.23046875 200.9921875 C112.56732001 205.73142702 115 209.3180194 115 215.875 C114.1394257 220.87007257 111.83104378 223.77423266 108 227 C104.37867792 229.47474302 100.63607529 231.70841928 96.84912109 233.91552734 C77.60542433 245.20157184 59.55166477 258.25988809 42 272 C41.08089844 272.71542969 40.16179687 273.43085938 39.21484375 274.16796875 C33.09443396 278.99463338 27.1954005 284.07490527 21.296875 289.16796875 C18.2275011 291.81507671 15.12067688 294.41362083 12 297 C15.84620514 307.63021522 23.80294308 316.47059535 31 325 C31.72832031 325.91394531 32.45664063 326.82789063 33.20703125 327.76953125 C45.9568547 343.48538795 60.8752623 358.93116748 77.32226562 370.77539062 C79.15457668 372.11282838 80.9447373 373.49664927 82.734375 374.890625 C92.7274881 382.62952119 103.16488341 389.49938038 114 396 C114.72380859 396.43554199 115.44761719 396.87108398 116.19335938 397.31982422 C142.01227382 412.68007044 182.10721135 434.05250214 213 432 C213 432.66 213 433.32 213 434 C224.11017094 434.96842727 235.16554241 435.27257006 246.3125 435.3125 C247.1977536 435.31744476 248.0830072 435.32238953 248.99508667 435.32748413 C263.06725977 435.37498207 276.75094349 434.40382797 290.64379883 432.15942383 C297.71664829 431.0840597 302.66941185 430.33976903 309 434 C311.08406683 436.67563789 311.29111997 438.85781537 311 442.1875 C309.65444626 451.3223148 303.33364723 457.28209469 296.30859375 462.734375 C285.60836894 470.3091725 273.60283586 475.54074703 261 479 C260.25363281 479.21108398 259.50726563 479.42216797 258.73828125 479.63964844 C215.62770714 491.61285438 167.48467118 490.22292891 125.9140625 473.1015625 C123.05152032 471.82320218 123.05152032 471.82320218 120 472 C120 471.34 120 470.68 120 470 C119.2877124 469.885354 118.5754248 469.77070801 117.84155273 469.65258789 C114.80836282 468.95598882 112.34002905 467.90247913 109.53515625 466.55859375 C108.49472168 466.06149902 107.45428711 465.5644043 106.38232422 465.05224609 C105.28678223 464.51937988 104.19124023 463.98651367 103.0625 463.4375 C101.93602051 462.89174316 100.80954102 462.34598633 99.64892578 461.78369141 C72.39785066 448.47045895 48.76505525 430.90939058 26.625 410.3125 C25.97104248 409.70704346 25.31708496 409.10158691 24.64331055 408.4777832 C20.12069038 404.22590963 16.03515992 399.71190493 12 395 C11.06375838 393.9508345 10.12511151 392.9038083 9.18359375 391.859375 C-5.70123693 375.12232914 -18.18905625 356.13320705 -28 336 C-28.33 336 -28.66 336 -29 336 C-31.20310563 360.45095687 -33.10119961 385.4603318 -27.875 409.6875 C-25.57043906 420.41693127 -25.57043906 420.41693127 -28.1328125 425.046875 C-31.31912492 429.08398288 -33.93751941 430.7432718 -39 432 C-41.92248769 432.29310143 -44.81433119 432.33403152 -47.75 432.3125 C-48.54986328 432.30686035 -49.34972656 432.3012207 -50.17382812 432.29541016 C-62.70985761 432.03827389 -72.89860236 427.57192993 -81.6875 418.5 C-90.64491032 407.89960789 -94.70577755 395.22449416 -98 382 C-98.28617188 380.85660156 -98.57234375 379.71320313 -98.8671875 378.53515625 C-101.4780517 366.78626736 -102.45814134 354.76588954 -103.65869141 342.80810547 C-103.94517057 340.06020927 -103.94517057 340.06020927 -104.5300293 337.64257812 C-105.16937885 334.04760693 -105.16218441 330.49066686 -105.16796875 326.8515625 C-105.17202225 326.05419678 -105.17607574 325.25683105 -105.18025208 324.43530273 C-105.18973303 321.83182804 -105.18964196 319.22848969 -105.1875 316.625 C-105.1882251 315.7370575 -105.1889502 314.84911499 -105.18969727 313.93426514 C-105.18838468 299.34261076 -104.56988556 284.89812892 -103.4375 270.3515625 C-103.01915585 264.8885762 -102.88730142 259.47683803 -103 254 C-102.34 254 -101.68 254 -101 254 C-100.95681641 253.03715088 -100.91363281 252.07430176 -100.86914062 251.08227539 C-100.36517578 241.07072847 -99.18772382 231.31407842 -97.5 221.4375 C-97.37161743 220.67631866 -97.24323486 219.91513733 -97.11096191 219.13088989 C-88.57640649 168.91572203 -74.47073073 119.66006927 -54 73 C-53.56719727 72.00419922 -53.13439453 71.00839844 -52.68847656 69.98242188 C-27.35848206 11.99542204 -27.35848206 11.99542204 -7.421875 2.8125 C-4.80702512 1.93526004 -2.73912417 1.84347862 0 2 C0 1.34 0 0.68 0 0 Z " fill="#000000" transform="translate(144,0)"/>
<path d="M0 0 C6.0655779 4.37148095 10.52825238 8.94065741 12 16.44140625 C14.02456122 30.26213542 7.68875837 42.87523724 -0.0703125 53.890625 C-1.02550781 55.15326172 -1.02550781 55.15326172 -2 56.44140625 C-2.69867188 57.37597656 -3.39734375 58.31054688 -4.1171875 59.2734375 C-4.73851562 59.98886719 -5.35984375 60.70429688 -6 61.44140625 C-6.66 61.44140625 -7.32 61.44140625 -8 61.44140625 C-8.495 62.92640625 -8.495 62.92640625 -9 64.44140625 C-11.109375 66.1953125 -11.109375 66.1953125 -13.75 68.00390625 C-15.04164063 68.90302734 -15.04164063 68.90302734 -16.359375 69.8203125 C-23.37705586 74.12850415 -29.90476679 74.26031288 -38 73.44140625 C-46.52588389 71.18129028 -54.42601879 66.91178565 -59.33984375 59.390625 C-65.19027872 48.33517671 -63.12083017 37.07245204 -60 25.44140625 C-56.51011289 14.1919533 -51.57334199 4.56575378 -42 -2.55859375 C-41.34 -3.21859375 -40.68 -3.87859375 -40 -4.55859375 C-27.56319566 -9.53331549 -11.22538624 -6.9126919 0 0 Z " fill="#000000" transform="translate(368,140.55859375)"/>
<path d="M0 0 C2.31 0 4.62 0 7 0 C7 0.33 7 0.66 7 1 C4.69 1 2.38 1 0 1 C0 0.67 0 0.34 0 0 Z " fill="#000000" transform="translate(518,390)"/>
<path d="M0 0 C0.33 0.66 0.66 1.32 1 2 C1.66 2.33 2.32 2.66 3 3 C1.68 2.67 0.36 2.34 -1 2 C-0.67 1.34 -0.34 0.68 0 0 Z " fill="#000000" transform="translate(402,432)"/>
<path d="M0 0 C0.33 0 0.66 0 1 0 C1 1.98 1 3.96 1 6 C0.67 6 0.34 6 0 6 C0 4.02 0 2.04 0 0 Z " fill="#000000" transform="translate(680,345)"/>
<path d="M0 0 C1 4 1 4 1 4 Z " fill="#000000" transform="translate(39,345)"/>
<path d="M0 0 C1 4 1 4 1 4 Z " fill="#000000" transform="translate(680,321)"/>
<path d="M0 0 C1 4 1 4 1 4 Z " fill="#000000" transform="translate(681,312)"/>
<path d="M0 0 C4 1 4 1 4 1 Z " fill="#000000" transform="translate(697,219)"/>
<path d="M0 0 C4 1 4 1 4 1 Z " fill="#000000" transform="translate(226,189)"/>
<path d="M0 0 C3 1 3 1 3 1 Z " fill="#000000" transform="translate(314,486)"/>
<path d="M0 0 C0.66 0 1.32 0 2 0 C1.67 0.66 1.34 1.32 1 2 C0.67 1.34 0.34 0.68 0 0 Z " fill="#000000" transform="translate(168,411)"/>
<path d="M0 0 C3 1 3 1 3 1 Z " fill="#000000" transform="translate(778,410)"/>
<path d="" fill="#000000" transform="translate(0,0)"/>
<path d="" fill="#000000" transform="translate(0,0)"/>
<path d="" fill="#000000" transform="translate(0,0)"/>
<path d="M0 0 C0.66 0 1.32 0 2 0 C1.67 0.66 1.34 1.32 1 2 C0.67 1.34 0.34 0.68 0 0 Z " fill="#000000" transform="translate(650,251)"/>
<path d="" fill="#000000" transform="translate(0,0)"/>
<path d="" fill="#000000" transform="translate(0,0)"/>
<path d="" fill="#000000" transform="translate(0,0)"/>
<path d="M0 0 C3 1 3 1 3 1 Z " fill="#000000" transform="translate(624,211)"/>
<path d="M0 0 C3 1 3 1 3 1 Z " fill="#000000" transform="translate(618,211)"/>
<path d="" fill="#000000" transform="translate(0,0)"/>
<path d="M0 0 C3 1 3 1 3 1 Z " fill="#000000" transform="translate(217,188)"/>
<path d="M0 0 C2 1 2 1 2 1 Z " fill="#000000" transform="translate(364,487)"/>
<path d="M0 0 C2 1 2 1 2 1 Z " fill="#000000" transform="translate(375,486)"/>
<path d="M0 0 C2 1 2 1 2 1 Z " fill="#000000" transform="translate(745,467)"/>
<path d="M0 0 C2 1 2 1 2 1 Z " fill="#000000" transform="translate(415,433)"/>
<path d="M0 0 C2 1 2 1 2 1 Z " fill="#000000" transform="translate(745,419)"/>
<path d="M0 0 C2 1 2 1 2 1 Z " fill="#000000" transform="translate(652,419)"/>
<path d="M0 0 C2 1 2 1 2 1 Z " fill="#000000" transform="translate(301,416)"/>
<path d="M0 0 C2 1 2 1 2 1 Z " fill="#000000" transform="translate(752,412)"/>
<path d="M0 0 C2 1 2 1 2 1 Z " fill="#000000" transform="translate(748,412)"/>
<path d="" fill="#000000" transform="translate(0,0)"/>
<path d="M0 0 C2 1 2 1 2 1 Z " fill="#000000" transform="translate(736,411)"/>
<path d="M0 0 C2 1 2 1 2 1 Z " fill="#000000" transform="translate(48,400)"/>
<path d="M0 0 C2 1 2 1 2 1 Z " fill="#000000" transform="translate(307,399)"/>
<path d="M0 0 C2 1 2 1 2 1 Z " fill="#000000" transform="translate(698,391)"/>
<path d="" fill="#000000" transform="translate(0,0)"/>
<path d="M0 0 C2 1 2 1 2 1 Z " fill="#000000" transform="translate(514,390)"/>
<path d="" fill="#000000" transform="translate(0,0)"/>
<path d="" fill="#000000" transform="translate(0,0)"/>
<path d="" fill="#000000" transform="translate(0,0)"/>
<path d="M0 0 C2 1 2 1 2 1 Z " fill="#000000" transform="translate(788,361)"/>
<path d="" fill="#000000" transform="translate(0,0)"/>
<path d="M0 0 C2 1 2 1 2 1 Z " fill="#000000" transform="translate(536,352)"/>
<path d="" fill="#000000" transform="translate(0,0)"/>
<path d="" fill="#000000" transform="translate(0,0)"/>
<path d="M0 0 C2 1 2 1 2 1 Z " fill="#000000" transform="translate(651,331)"/>
<path d="" fill="#000000" transform="translate(0,0)"/>
<path d="" fill="#000000" transform="translate(0,0)"/>
<path d="" fill="#000000" transform="translate(0,0)"/>
<path d="M0 0 C2 1 2 1 2 1 Z " fill="#000000" transform="translate(359,320)"/>
<path d="M0 0 C2 1 2 1 2 1 Z " fill="#000000" transform="translate(168,315)"/>
<path d="M0 0 C2 1 2 1 2 1 Z " fill="#000000" transform="translate(165,312)"/>
<path d="M0 0 C2 1 2 1 2 1 Z " fill="#000000" transform="translate(848,307)"/>
<path d="M0 0 C2 1 2 1 2 1 Z " fill="#000000" transform="translate(854,306)"/>
<path d="" fill="#000000" transform="translate(0,0)"/>
<path d="" fill="#000000" transform="translate(0,0)"/>
<path d="" fill="#000000" transform="translate(0,0)"/>
<path d="" fill="#000000" transform="translate(0,0)"/>
<path d="M0 0 C2 1 2 1 2 1 Z " fill="#000000" transform="translate(578,281)"/>
<path d="" fill="#000000" transform="translate(0,0)"/>
<path d="" fill="#000000" transform="translate(0,0)"/>
<path d="M0 0 C2 1 2 1 2 1 Z " fill="#000000" transform="translate(509,264)"/>
<path d="" fill="#000000" transform="translate(0,0)"/>
<path d="" fill="#000000" transform="translate(0,0)"/>
<path d="" fill="#000000" transform="translate(0,0)"/>
<path d="" fill="#000000" transform="translate(0,0)"/>
<path d="" fill="#000000" transform="translate(0,0)"/>
<path d="M0 0 C2 1 2 1 2 1 Z " fill="#000000" transform="translate(133,234)"/>
<path d="" fill="#000000" transform="translate(0,0)"/>
<path d="" fill="#000000" transform="translate(0,0)"/>
<path d="M0 0 C2 1 2 1 2 1 Z " fill="#000000" transform="translate(290,225)"/>
<path d="" fill="#000000" transform="translate(0,0)"/>
<path d="M0 0 C2 1 2 1 2 1 Z " fill="#000000" transform="translate(687,224)"/>
<path d="M0 0 C2 1 2 1 2 1 Z " fill="#000000" transform="translate(701,218)"/>
<path d="M0 0 C2 1 2 1 2 1 Z " fill="#000000" transform="translate(744,217)"/>
<path d="M0 0 C2 1 2 1 2 1 Z " fill="#000000" transform="translate(711,216)"/>
<path d="M0 0 C2 1 2 1 2 1 Z " fill="#000000" transform="translate(485,212)"/>
<path d="M0 0 C2 1 2 1 2 1 Z " fill="#000000" transform="translate(745,211)"/>
<path d="M0 0 C2 1 2 1 2 1 Z " fill="#000000" transform="translate(483,211)"/>
<path d="" fill="#000000" transform="translate(0,0)"/>
<path d="" fill="#000000" transform="translate(0,0)"/>
<path d="M0 0 C2 1 2 1 2 1 Z " fill="#000000" transform="translate(745,187)"/>
<path d="" fill="#000000" transform="translate(0,0)"/>
<path d="" fill="#000000" transform="translate(0,0)"/>
<path d="" fill="#000000" transform="translate(0,0)"/>
<path d="" fill="#000000" transform="translate(0,0)"/>
<path d="" fill="#000000" transform="translate(0,0)"/>
<path d="" fill="#000000" transform="translate(0,0)"/>
<path d="" fill="#000000" transform="translate(0,0)"/>
<path d="" fill="#000000" transform="translate(0,0)"/>
<path d="M0 0 C2 1 2 1 2 1 Z " fill="#000000" transform="translate(745,147)"/>
<path d="M0 0 C2 1 2 1 2 1 Z " fill="#000000" transform="translate(745,123)"/>
<path d="" fill="#000000" transform="translate(0,0)"/>
<path d="M0 0 C2 1 2 1 2 1 Z " fill="#000000" transform="translate(745,115)"/>
<path d="" fill="#000000" transform="translate(0,0)"/>
<path d="" fill="#000000" transform="translate(0,0)"/>
<path d="M0 0 C2 1 2 1 2 1 Z " fill="#000000" transform="translate(168,3)"/>
<path d="" fill="#000000" transform="translate(0,0)"/>
<path d="" fill="#000000" transform="translate(0,0)"/>
<path d="" fill="#000000" transform="translate(0,0)"/>
<path d="" fill="#000000" transform="translate(0,0)"/>
<path d="" fill="#000000" transform="translate(0,0)"/>
<path d="" fill="#000000" transform="translate(0,0)"/>
<path d="" fill="#000000" transform="translate(0,0)"/>
<path d="" fill="#000000" transform="translate(0,0)"/>
<path d="" fill="#000000" transform="translate(0,0)"/>
<path d="" fill="#000000" transform="translate(0,0)"/>
<path d="" fill="#000000" transform="translate(0,0)"/>
<path d="" fill="#000000" transform="translate(0,0)"/>
<path d="" fill="#000000" transform="translate(0,0)"/>
<path d="" fill="#000000" transform="translate(0,0)"/>
<path d="" fill="#000000" transform="translate(0,0)"/>
<path d="" fill="#000000" transform="translate(0,0)"/>
<path d="" fill="#000000" transform="translate(0,0)"/>
<path d="" fill="#000000" transform="translate(0,0)"/>
<path d="" fill="#000000" transform="translate(0,0)"/>
<path d="" fill="#000000" transform="translate(0,0)"/>
<path d="" fill="#000000" transform="translate(0,0)"/>
<path d="" fill="#000000" transform="translate(0,0)"/>
<path d="" fill="#000000" transform="translate(0,0)"/>
<path d="" fill="#000000" transform="translate(0,0)"/>
<path d="" fill="#000000" transform="translate(0,0)"/>
<path d="" fill="#000000" transform="translate(0,0)"/>
<path d="" fill="#000000" transform="translate(0,0)"/>
<path d="" fill="#000000" transform="translate(0,0)"/>
<path d="" fill="#000000" transform="translate(0,0)"/>
<path d="" fill="#000000" transform="translate(0,0)"/>
<path d="" fill="#000000" transform="translate(0,0)"/>
<path d="" fill="#000000" transform="translate(0,0)"/>
<path d="" fill="#000000" transform="translate(0,0)"/>
<path d="" fill="#000000" transform="translate(0,0)"/>
<path d="" fill="#000000" transform="translate(0,0)"/>
<path d="" fill="#000000" transform="translate(0,0)"/>
<path d="" fill="#000000" transform="translate(0,0)"/>
<path d="" fill="#000000" transform="translate(0,0)"/>
<path d="" fill="#000000" transform="translate(0,0)"/>
<path d="" fill="#000000" transform="translate(0,0)"/>
<path d="" fill="#000000" transform="translate(0,0)"/>
<path d="" fill="#000000" transform="translate(0,0)"/>
<path d="" fill="#000000" transform="translate(0,0)"/>
<path d="" fill="#000000" transform="translate(0,0)"/>
<path d="" fill="#000000" transform="translate(0,0)"/>
<path d="" fill="#000000" transform="translate(0,0)"/>
<path d="" fill="#000000" transform="translate(0,0)"/>
<path d="" fill="#000000" transform="translate(0,0)"/>
<path d="" fill="#000000" transform="translate(0,0)"/>
<path d="" fill="#000000" transform="translate(0,0)"/>
<path d="" fill="#000000" transform="translate(0,0)"/>
<path d="" fill="#000000" transform="translate(0,0)"/>
<path d="" fill="#000000" transform="translate(0,0)"/>
<path d="" fill="#000000" transform="translate(0,0)"/>
<path d="" fill="#000000" transform="translate(0,0)"/>
<path d="" fill="#000000" transform="translate(0,0)"/>
<path d="" fill="#000000" transform="translate(0,0)"/>
<path d="" fill="#000000" transform="translate(0,0)"/>
<path d="" fill="#000000" transform="translate(0,0)"/>
<path d="" fill="#000000" transform="translate(0,0)"/>
<path d="" fill="#000000" transform="translate(0,0)"/>
<path d="" fill="#000000" transform="translate(0,0)"/>
<path d="" fill="#000000" transform="translate(0,0)"/>
<path d="" fill="#000000" transform="translate(0,0)"/>
<path d="" fill="#000000" transform="translate(0,0)"/>
<path d="" fill="#000000" transform="translate(0,0)"/>
<path d="" fill="#000000" transform="translate(0,0)"/>
<path d="" fill="#000000" transform="translate(0,0)"/>
<path d="" fill="#000000" transform="translate(0,0)"/>
<path d="" fill="#000000" transform="translate(0,0)"/>
<path d="" fill="#000000" transform="translate(0,0)"/>
<path d="" fill="#000000" transform="translate(0,0)"/>
<path d="" fill="#000000" transform="translate(0,0)"/>
<path d="" fill="#000000" transform="translate(0,0)"/>
<path d="" fill="#000000" transform="translate(0,0)"/>
<path d="" fill="#000000" transform="translate(0,0)"/>
<path d="" fill="#000000" transform="translate(0,0)"/>
<path d="" fill="#000000" transform="translate(0,0)"/>
<path d="" fill="#000000" transform="translate(0,0)"/>
<path d="" fill="#000000" transform="translate(0,0)"/>
<path d="" fill="#000000" transform="translate(0,0)"/>
<path d="" fill="#000000" transform="translate(0,0)"/>
<path d="" fill="#000000" transform="translate(0,0)"/>
<path d="" fill="#000000" transform="translate(0,0)"/>
<path d="" fill="#000000" transform="translate(0,0)"/>
<path d="" fill="#000000" transform="translate(0,0)"/>
<path d="" fill="#000000" transform="translate(0,0)"/>
<path d="" fill="#000000" transform="translate(0,0)"/>
<path d="" fill="#000000" transform="translate(0,0)"/>
<path d="" fill="#000000" transform="translate(0,0)"/>
<path d="" fill="#000000" transform="translate(0,0)"/>
<path d="" fill="#000000" transform="translate(0,0)"/>
<path d="" fill="#000000" transform="translate(0,0)"/>
<path d="" fill="#000000" transform="translate(0,0)"/>
<path d="" fill="#000000" transform="translate(0,0)"/>
<path d="" fill="#000000" transform="translate(0,0)"/>
<path d="" fill="#000000" transform="translate(0,0)"/>
<path d="" fill="#000000" transform="translate(0,0)"/>
<path d="" fill="#000000" transform="translate(0,0)"/>
<path d="" fill="#000000" transform="translate(0,0)"/>
<path d="" fill="#000000" transform="translate(0,0)"/>
<path d="" fill="#000000" transform="translate(0,0)"/>
<path d="" fill="#000000" transform="translate(0,0)"/>
<path d="" fill="#000000" transform="translate(0,0)"/>
<path d="" fill="#000000" transform="translate(0,0)"/>
<path d="" fill="#000000" transform="translate(0,0)"/>
<path d="" fill="#000000" transform="translate(0,0)"/>
<path d="" fill="#000000" transform="translate(0,0)"/>
<path d="" fill="#000000" transform="translate(0,0)"/>
<path d="" fill="#000000" transform="translate(0,0)"/>
<path d="" fill="#000000" transform="translate(0,0)"/>
<path d="" fill="#000000" transform="translate(0,0)"/>
<path d="" fill="#000000" transform="translate(0,0)"/>
<path d="" fill="#000000" transform="translate(0,0)"/>
<path d="" fill="#000000" transform="translate(0,0)"/>
<path d="" fill="#000000" transform="translate(0,0)"/>
<path d="" fill="#000000" transform="translate(0,0)"/>
<path d="" fill="#000000" transform="translate(0,0)"/>
<path d="" fill="#000000" transform="translate(0,0)"/>
<path d="" fill="#000000" transform="translate(0,0)"/>
<path d="" fill="#000000" transform="translate(0,0)"/>
<path d="" fill="#000000" transform="translate(0,0)"/>
<path d="" fill="#000000" transform="translate(0,0)"/>
<path d="" fill="#000000" transform="translate(0,0)"/>
<path d="" fill="#000000" transform="translate(0,0)"/>
<path d="" fill="#000000" transform="translate(0,0)"/>
<path d="" fill="#000000" transform="translate(0,0)"/>
<path d="" fill="#000000" transform="translate(0,0)"/>
<path d="" fill="#000000" transform="translate(0,0)"/>
<path d="" fill="#000000" transform="translate(0,0)"/>
<path d="" fill="#000000" transform="translate(0,0)"/>
<path d="" fill="#000000" transform="translate(0,0)"/>
<path d="" fill="#000000" transform="translate(0,0)"/>
<path d="" fill="#000000" transform="translate(0,0)"/>
<path d="" fill="#000000" transform="translate(0,0)"/>
<path d="" fill="#000000" transform="translate(0,0)"/>
<path d="" fill="#000000" transform="translate(0,0)"/>
<path d="" fill="#000000" transform="translate(0,0)"/>
<path d="" fill="#000000" transform="translate(0,0)"/>
<path d="" fill="#000000" transform="translate(0,0)"/>
<path d="" fill="#000000" transform="translate(0,0)"/>
<path d="" fill="#000000" transform="translate(0,0)"/>
<path d="" fill="#000000" transform="translate(0,0)"/>
<path d="" fill="#000000" transform="translate(0,0)"/>
<path d="" fill="#000000" transform="translate(0,0)"/>
<path d="" fill="#000000" transform="translate(0,0)"/>
<path d="" fill="#000000" transform="translate(0,0)"/>
<path d="" fill="#000000" transform="translate(0,0)"/>
<path d="" fill="#000000" transform="translate(0,0)"/>
<path d="" fill="#000000" transform="translate(0,0)"/>
<path d="" fill="#000000" transform="translate(0,0)"/>
<path d="" fill="#000000" transform="translate(0,0)"/>
<path d="" fill="#000000" transform="translate(0,0)"/>
<path d="" fill="#000000" transform="translate(0,0)"/>
<path d="" fill="#000000" transform="translate(0,0)"/>
<path d="" fill="#000000" transform="translate(0,0)"/>
<path d="" fill="#000000" transform="translate(0,0)"/>
<path d="" fill="#000000" transform="translate(0,0)"/>
<path d="" fill="#000000" transform="translate(0,0)"/>
<path d="" fill="#000000" transform="translate(0,0)"/>
<path d="" fill="#000000" transform="translate(0,0)"/>
<path d="" fill="#000000" transform="translate(0,0)"/>
<path d="" fill="#000000" transform="translate(0,0)"/>
<path d="" fill="#000000" transform="translate(0,0)"/>
<path d="" fill="#000000" transform="translate(0,0)"/>
<path d="" fill="#000000" transform="translate(0,0)"/>
<path d="" fill="#000000" transform="translate(0,0)"/>
<path d="" fill="#000000" transform="translate(0,0)"/>
<path d="" fill="#000000" transform="translate(0,0)"/>
<path d="" fill="#000000" transform="translate(0,0)"/>
<path d="" fill="#000000" transform="translate(0,0)"/>
<path d="" fill="#000000" transform="translate(0,0)"/>
<path d="" fill="#000000" transform="translate(0,0)"/>
<path d="" fill="#000000" transform="translate(0,0)"/>
<path d="" fill="#000000" transform="translate(0,0)"/>
<path d="" fill="#000000" transform="translate(0,0)"/>
<path d="" fill="#000000" transform="translate(0,0)"/>
<path d="" fill="#000000" transform="translate(0,0)"/>
<path d="" fill="#000000" transform="translate(0,0)"/>
<path d="" fill="#000000" transform="translate(0,0)"/>
<path d="" fill="#000000" transform="translate(0,0)"/>
<path d="" fill="#000000" transform="translate(0,0)"/>
<path d="" fill="#000000" transform="translate(0,0)"/>
<path d="" fill="#000000" transform="translate(0,0)"/>
<path d="" fill="#000000" transform="translate(0,0)"/>
<path d="" fill="#000000" transform="translate(0,0)"/>
<path d="" fill="#000000" transform="translate(0,0)"/>
<path d="" fill="#000000" transform="translate(0,0)"/>
<path d="" fill="#000000" transform="translate(0,0)"/>
<path d="" fill="#000000" transform="translate(0,0)"/>
<path d="" fill="#000000" transform="translate(0,0)"/>
<path d="" fill="#000000" transform="translate(0,0)"/>
<path d="" fill="#000000" transform="translate(0,0)"/>
<path d="" fill="#000000" transform="translate(0,0)"/>
<path d="" fill="#000000" transform="translate(0,0)"/>
<path d="" fill="#000000" transform="translate(0,0)"/>
<path d="" fill="#000000" transform="translate(0,0)"/>
<path d="" fill="#000000" transform="translate(0,0)"/>
<path d="" fill="#000000" transform="translate(0,0)"/>
<path d="" fill="#000000" transform="translate(0,0)"/>
<path d="" fill="#000000" transform="translate(0,0)"/>
<path d="" fill="#000000" transform="translate(0,0)"/>
<path d="" fill="#000000" transform="translate(0,0)"/>
<path d="" fill="#000000" transform="translate(0,0)"/>
<path d="" fill="#000000" transform="translate(0,0)"/>
<path d="" fill="#000000" transform="translate(0,0)"/>
<path d="" fill="#000000" transform="translate(0,0)"/>
<path d="" fill="#000000" transform="translate(0,0)"/>
<path d="" fill="#000000" transform="translate(0,0)"/>
<path d="" fill="#000000" transform="translate(0,0)"/>
<path d="" fill="#000000" transform="translate(0,0)"/>
<path d="" fill="#000000" transform="translate(0,0)"/>
<path d="" fill="#000000" transform="translate(0,0)"/>
<path d="" fill="#000000" transform="translate(0,0)"/>
<path d="" fill="#000000" transform="translate(0,0)"/>
<path d="" fill="#000000" transform="translate(0,0)"/>
<path d="" fill="#000000" transform="translate(0,0)"/>
<path d="" fill="#000000" transform="translate(0,0)"/>
<path d="" fill="#000000" transform="translate(0,0)"/>
<path d="" fill="#000000" transform="translate(0,0)"/>
<path d="" fill="#000000" transform="translate(0,0)"/>
<path d="" fill="#000000" transform="translate(0,0)"/>
<path d="" fill="#000000" transform="translate(0,0)"/>
<path d="" fill="#000000" transform="translate(0,0)"/>
<path d="" fill="#000000" transform="translate(0,0)"/>
<path d="" fill="#000000" transform="translate(0,0)"/>
<path d="" fill="#000000" transform="translate(0,0)"/>
<path d="" fill="#000000" transform="translate(0,0)"/>
<path d="" fill="#000000" transform="translate(0,0)"/>
<path d="" fill="#000000" transform="translate(0,0)"/>
<path d="" fill="#000000" transform="translate(0,0)"/>
<path d="" fill="#000000" transform="translate(0,0)"/>
<path d="" fill="#000000" transform="translate(0,0)"/>
<path d="" fill="#000000" transform="translate(0,0)"/>
<path d="" fill="#000000" transform="translate(0,0)"/>
<path d="" fill="#000000" transform="translate(0,0)"/>
<path d="" fill="#000000" transform="translate(0,0)"/>
<path d="" fill="#000000" transform="translate(0,0)"/>
<path d="" fill="#000000" transform="translate(0,0)"/>
<path d="" fill="#000000" transform="translate(0,0)"/>
<path d="" fill="#000000" transform="translate(0,0)"/>
<path d="" fill="#000000" transform="translate(0,0)"/>
<path d="" fill="#000000" transform="translate(0,0)"/>
<path d="" fill="#000000" transform="translate(0,0)"/>
<path d="" fill="#000000" transform="translate(0,0)"/>
<path d="" fill="#000000" transform="translate(0,0)"/>
<path d="" fill="#000000" transform="translate(0,0)"/>
<path d="" fill="#000000" transform="translate(0,0)"/>
<path d="" fill="#000000" transform="translate(0,0)"/>
<path d="" fill="#000000" transform="translate(0,0)"/>
<path d="" fill="#000000" transform="translate(0,0)"/>
<path d="" fill="#000000" transform="translate(0,0)"/>
<path d="" fill="#000000" transform="translate(0,0)"/>
<path d="" fill="#000000" transform="translate(0,0)"/>
<path d="" fill="#000000" transform="translate(0,0)"/>
<path d="" fill="#000000" transform="translate(0,0)"/>
<path d="" fill="#000000" transform="translate(0,0)"/>
<path d="" fill="#000000" transform="translate(0,0)"/>
<path d="" fill="#000000" transform="translate(0,0)"/>
<path d="" fill="#000000" transform="translate(0,0)"/>
<path d="" fill="#000000" transform="translate(0,0)"/>
<path d="" fill="#000000" transform="translate(0,0)"/>
<path d="" fill="#000000" transform="translate(0,0)"/>
<path d="" fill="#000000" transform="translate(0,0)"/>
<path d="" fill="#000000" transform="translate(0,0)"/>
<path d="" fill="#000000" transform="translate(0,0)"/>
<path d="" fill="#000000" transform="translate(0,0)"/>
<path d="" fill="#000000" transform="translate(0,0)"/>
<path d="" fill="#000000" transform="translate(0,0)"/>
<path d="" fill="#000000" transform="translate(0,0)"/>
<path d="" fill="#000000" transform="translate(0,0)"/>
<path d="" fill="#000000" transform="translate(0,0)"/>
<path d="" fill="#000000" transform="translate(0,0)"/>
<path d="" fill="#000000" transform="translate(0,0)"/>
<path d="" fill="#000000" transform="translate(0,0)"/>
<path d="" fill="#000000" transform="translate(0,0)"/>
<path d="" fill="#000000" transform="translate(0,0)"/>
<path d="" fill="#000000" transform="translate(0,0)"/>
<path d="" fill="#000000" transform="translate(0,0)"/>
<path d="" fill="#000000" transform="translate(0,0)"/>
<path d="" fill="#000000" transform="translate(0,0)"/>
<path d="" fill="#000000" transform="translate(0,0)"/>
<path d="" fill="#000000" transform="translate(0,0)"/>
<path d="" fill="#000000" transform="translate(0,0)"/>
<path d="" fill="#000000" transform="translate(0,0)"/>
<path d="" fill="#000000" transform="translate(0,0)"/>
<path d="" fill="#000000" transform="translate(0,0)"/>
<path d="" fill="#000000" transform="translate(0,0)"/>
<path d="" fill="#000000" transform="translate(0,0)"/>
<path d="" fill="#000000" transform="translate(0,0)"/>
<path d="" fill="#000000" transform="translate(0,0)"/>
<path d="" fill="#000000" transform="translate(0,0)"/>
<path d="" fill="#000000" transform="translate(0,0)"/>
<path d="" fill="#000000" transform="translate(0,0)"/>
<path d="" fill="#000000" transform="translate(0,0)"/>
<path d="" fill="#000000" transform="translate(0,0)"/>
<path d="" fill="#000000" transform="translate(0,0)"/>
<path d="" fill="#000000" transform="translate(0,0)"/>
<path d="" fill="#000000" transform="translate(0,0)"/>
<path d="" fill="#000000" transform="translate(0,0)"/>
<path d="" fill="#000000" transform="translate(0,0)"/>
<path d="" fill="#000000" transform="translate(0,0)"/>
<path d="" fill="#000000" transform="translate(0,0)"/>
<path d="" fill="#000000" transform="translate(0,0)"/>
<path d="" fill="#000000" transform="translate(0,0)"/>
<path d="" fill="#000000" transform="translate(0,0)"/>
<path d="" fill="#000000" transform="translate(0,0)"/>
<path d="" fill="#000000" transform="translate(0,0)"/>
<path d="" fill="#000000" transform="translate(0,0)"/>
<path d="" fill="#000000" transform="translate(0,0)"/>
<path d="" fill="#000000" transform="translate(0,0)"/>
<path d="" fill="#000000" transform="translate(0,0)"/>
<path d="" fill="#000000" transform="translate(0,0)"/>
<path d="" fill="#000000" transform="translate(0,0)"/>
<path d="" fill="#000000" transform="translate(0,0)"/>
<path d="" fill="#000000" transform="translate(0,0)"/>
<path d="" fill="#000000" transform="translate(0,0)"/>
<path d="" fill="#000000" transform="translate(0,0)"/>
<path d="" fill="#000000" transform="translate(0,0)"/>
<path d="" fill="#000000" transform="translate(0,0)"/>
<path d="" fill="#000000" transform="translate(0,0)"/>
<path d="" fill="#000000" transform="translate(0,0)"/>
<path d="" fill="#000000" transform="translate(0,0)"/>
<path d="" fill="#000000" transform="translate(0,0)"/>
<path d="" fill="#000000" transform="translate(0,0)"/>
<path d="" fill="#000000" transform="translate(0,0)"/>
<path d="" fill="#000000" transform="translate(0,0)"/>
<path d="" fill="#000000" transform="translate(0,0)"/>
<path d="" fill="#000000" transform="translate(0,0)"/>
<path d="" fill="#000000" transform="translate(0,0)"/>
<path d="" fill="#000000" transform="translate(0,0)"/>
<path d="" fill="#000000" transform="translate(0,0)"/>
<path d="" fill="#000000" transform="translate(0,0)"/>
<path d="" fill="#000000" transform="translate(0,0)"/>
<path d="" fill="#000000" transform="translate(0,0)"/>
<path d="" fill="#000000" transform="translate(0,0)"/>
<path d="" fill="#000000" transform="translate(0,0)"/>
<path d="" fill="#000000" transform="translate(0,0)"/>
<path d="" fill="#000000" transform="translate(0,0)"/>
<path d="" fill="#000000" transform="translate(0,0)"/>
<path d="" fill="#000000" transform="translate(0,0)"/>
<path d="" fill="#000000" transform="translate(0,0)"/>
<path d="" fill="#000000" transform="translate(0,0)"/>
<path d="" fill="#000000" transform="translate(0,0)"/>
<path d="" fill="#000000" transform="translate(0,0)"/>
<path d="" fill="#000000" transform="translate(0,0)"/>
<path d="" fill="#000000" transform="translate(0,0)"/>
<path d="" fill="#000000" transform="translate(0,0)"/>
<path d="" fill="#000000" transform="translate(0,0)"/>
<path d="" fill="#000000" transform="translate(0,0)"/>
<path d="" fill="#000000" transform="translate(0,0)"/>
<path d="" fill="#000000" transform="translate(0,0)"/>
<path d="" fill="#000000" transform="translate(0,0)"/>
<path d="" fill="#000000" transform="translate(0,0)"/>
<path d="" fill="#000000" transform="translate(0,0)"/>
<path d="" fill="#000000" transform="translate(0,0)"/>
<path d="" fill="#000000" transform="translate(0,0)"/>
<path d="" fill="#000000" transform="translate(0,0)"/>
<path d="" fill="#000000" transform="translate(0,0)"/>
<path d="" fill="#000000" transform="translate(0,0)"/>
<path d="" fill="#000000" transform="translate(0,0)"/>
<path d="" fill="#000000" transform="translate(0,0)"/>
<path d="" fill="#000000" transform="translate(0,0)"/>
<path d="" fill="#000000" transform="translate(0,0)"/>
<path d="" fill="#000000" transform="translate(0,0)"/>
<path d="" fill="#000000" transform="translate(0,0)"/>
<path d="" fill="#000000" transform="translate(0,0)"/>
<path d="" fill="#000000" transform="translate(0,0)"/>
<path d="" fill="#000000" transform="translate(0,0)"/>
<path d="" fill="#000000" transform="translate(0,0)"/>
<path d="" fill="#000000" transform="translate(0,0)"/>
<path d="" fill="#000000" transform="translate(0,0)"/>
<path d="" fill="#000000" transform="translate(0,0)"/>
<path d="" fill="#000000" transform="translate(0,0)"/>
<path d="" fill="#000000" transform="translate(0,0)"/>
<path d="" fill="#000000" transform="translate(0,0)"/>
<path d="" fill="#000000" transform="translate(0,0)"/>
<path d="" fill="#000000" transform="translate(0,0)"/>
<path d="" fill="#000000" transform="translate(0,0)"/>
<path d="" fill="#000000" transform="translate(0,0)"/>
<path d="" fill="#000000" transform="translate(0,0)"/>
<path d="" fill="#000000" transform="translate(0,0)"/>
<path d="" fill="#000000" transform="translate(0,0)"/>
<path d="" fill="#000000" transform="translate(0,0)"/>
<path d="" fill="#000000" transform="translate(0,0)"/>
<path d="" fill="#000000" transform="translate(0,0)"/>
<path d="" fill="#000000" transform="translate(0,0)"/>
<path d="" fill="#000000" transform="translate(0,0)"/>
<path d="" fill="#000000" transform="translate(0,0)"/>
<path d="" fill="#000000" transform="translate(0,0)"/>
<path d="" fill="#000000" transform="translate(0,0)"/>
<path d="" fill="#000000" transform="translate(0,0)"/>
<path d="" fill="#000000" transform="translate(0,0)"/>
<path d="" fill="#000000" transform="translate(0,0)"/>
<path d="" fill="#000000" transform="translate(0,0)"/>
<path d="" fill="#000000" transform="translate(0,0)"/>
<path d="" fill="#000000" transform="translate(0,0)"/>
<path d="" fill="#000000" transform="translate(0,0)"/>
<path d="" fill="#000000" transform="translate(0,0)"/>
<path d="" fill="#000000" transform="translate(0,0)"/>
<path d="" fill="#000000" transform="translate(0,0)"/>
<path d="" fill="#000000" transform="translate(0,0)"/>
<path d="" fill="#000000" transform="translate(0,0)"/>
<path d="" fill="#000000" transform="translate(0,0)"/>
<path d="" fill="#000000" transform="translate(0,0)"/>
<path d="" fill="#000000" transform="translate(0,0)"/>
<path d="" fill="#000000" transform="translate(0,0)"/>
<path d="" fill="#000000" transform="translate(0,0)"/>
<path d="" fill="#000000" transform="translate(0,0)"/>
<path d="" fill="#000000" transform="translate(0,0)"/>
<path d="" fill="#000000" transform="translate(0,0)"/>
<path d="" fill="#000000" transform="translate(0,0)"/>
<path d="" fill="#000000" transform="translate(0,0)"/>
<path d="" fill="#000000" transform="translate(0,0)"/>
<path d="" fill="#000000" transform="translate(0,0)"/>
<path d="" fill="#000000" transform="translate(0,0)"/>
<path d="" fill="#000000" transform="translate(0,0)"/>
<path d="" fill="#000000" transform="translate(0,0)"/>
<path d="" fill="#000000" transform="translate(0,0)"/>
<path d="" fill="#000000" transform="translate(0,0)"/>
<path d="" fill="#000000" transform="translate(0,0)"/>
<path d="" fill="#000000" transform="translate(0,0)"/>
<path d="" fill="#000000" transform="translate(0,0)"/>
<path d="" fill="#000000" transform="translate(0,0)"/>
<path d="" fill="#000000" transform="translate(0,0)"/>
<path d="" fill="#000000" transform="translate(0,0)"/>
<path d="" fill="#000000" transform="translate(0,0)"/>
<path d="" fill="#000000" transform="translate(0,0)"/>
<path d="" fill="#000000" transform="translate(0,0)"/>
<path d="" fill="#000000" transform="translate(0,0)"/>
<path d="" fill="#000000" transform="translate(0,0)"/>
<path d="" fill="#000000" transform="translate(0,0)"/>
<path d="" fill="#000000" transform="translate(0,0)"/>
<path d="" fill="#000000" transform="translate(0,0)"/>
<path d="" fill="#000000" transform="translate(0,0)"/>
<path d="" fill="#000000" transform="translate(0,0)"/>
<path d="" fill="#000000" transform="translate(0,0)"/>
<path d="" fill="#000000" transform="translate(0,0)"/>
<path d="" fill="#000000" transform="translate(0,0)"/>
<path d="" fill="#000000" transform="translate(0,0)"/>
<path d="" fill="#000000" transform="translate(0,0)"/>
<path d="" fill="#000000" transform="translate(0,0)"/>
<path d="" fill="#000000" transform="translate(0,0)"/>
<path d="" fill="#000000" transform="translate(0,0)"/>
<path d="" fill="#000000" transform="translate(0,0)"/>
<path d="" fill="#000000" transform="translate(0,0)"/>
<path d="" fill="#000000" transform="translate(0,0)"/>
<path d="" fill="#000000" transform="translate(0,0)"/>
<path d="" fill="#000000" transform="translate(0,0)"/>
<path d="" fill="#000000" transform="translate(0,0)"/>
<path d="" fill="#000000" transform="translate(0,0)"/>
<path d="" fill="#000000" transform="translate(0,0)"/>
<path d="" fill="#000000" transform="translate(0,0)"/>
<path d="" fill="#000000" transform="translate(0,0)"/>
<path d="" fill="#000000" transform="translate(0,0)"/>
<path d="" fill="#000000" transform="translate(0,0)"/>
<path d="" fill="#000000" transform="translate(0,0)"/>
<path d="" fill="#000000" transform="translate(0,0)"/>
<path d="" fill="#000000" transform="translate(0,0)"/>
<path d="" fill="#000000" transform="translate(0,0)"/>
<path d="" fill="#000000" transform="translate(0,0)"/>
<path d="" fill="#000000" transform="translate(0,0)"/>
<path d="" fill="#000000" transform="translate(0,0)"/>
<path d="" fill="#000000" transform="translate(0,0)"/>
<path d="" fill="#000000" transform="translate(0,0)"/>
<path d="" fill="#000000" transform="translate(0,0)"/>
<path d="" fill="#000000" transform="translate(0,0)"/>
<path d="" fill="#000000" transform="translate(0,0)"/>
<path d="" fill="#000000" transform="translate(0,0)"/>
<path d="" fill="#000000" transform="translate(0,0)"/>
<path d="" fill="#000000" transform="translate(0,0)"/>
<path d="" fill="#000000" transform="translate(0,0)"/>
<path d="" fill="#000000" transform="translate(0,0)"/>
<path d="" fill="#000000" transform="translate(0,0)"/>
<path d="" fill="#000000" transform="translate(0,0)"/>
<path d="" fill="#000000" transform="translate(0,0)"/>
<path d="" fill="#000000" transform="translate(0,0)"/>
<path d="" fill="#000000" transform="translate(0,0)"/>
<path d="" fill="#000000" transform="translate(0,0)"/>
<path d="" fill="#000000" transform="translate(0,0)"/>
<path d="" fill="#000000" transform="translate(0,0)"/>
<path d="" fill="#000000" transform="translate(0,0)"/>
<path d="" fill="#000000" transform="translate(0,0)"/>
<path d="" fill="#000000" transform="translate(0,0)"/>
<path d="" fill="#000000" transform="translate(0,0)"/>
<path d="" fill="#000000" transform="translate(0,0)"/>
<path d="" fill="#000000" transform="translate(0,0)"/>
<path d="" fill="#000000" transform="translate(0,0)"/>
<path d="" fill="#000000" transform="translate(0,0)"/>
<path d="" fill="#000000" transform="translate(0,0)"/>
<path d="" fill="#000000" transform="translate(0,0)"/>
<path d="" fill="#000000" transform="translate(0,0)"/>
<path d="" fill="#000000" transform="translate(0,0)"/>
<path d="" fill="#000000" transform="translate(0,0)"/>
<path d="" fill="#000000" transform="translate(0,0)"/>
<path d="" fill="#000000" transform="translate(0,0)"/>
<path d="" fill="#000000" transform="translate(0,0)"/>
<path d="" fill="#000000" transform="translate(0,0)"/>
<path d="" fill="#000000" transform="translate(0,0)"/>
<path d="" fill="#000000" transform="translate(0,0)"/>
<path d="" fill="#000000" transform="translate(0,0)"/>
<path d="" fill="#000000" transform="translate(0,0)"/>
<path d="" fill="#000000" transform="translate(0,0)"/>
<path d="" fill="#000000" transform="translate(0,0)"/>
<path d="" fill="#000000" transform="translate(0,0)"/>
<path d="" fill="#000000" transform="translate(0,0)"/>
<path d="" fill="#000000" transform="translate(0,0)"/>
<path d="" fill="#000000" transform="translate(0,0)"/>
<path d="" fill="#000000" transform="translate(0,0)"/>
<path d="" fill="#000000" transform="translate(0,0)"/>
<path d="" fill="#000000" transform="translate(0,0)"/>
<path d="" fill="#000000" transform="translate(0,0)"/>
<path d="" fill="#000000" transform="translate(0,0)"/>
<path d="" fill="#000000" transform="translate(0,0)"/>
<path d="" fill="#000000" transform="translate(0,0)"/>
<path d="" fill="#000000" transform="translate(0,0)"/>
<path d="" fill="#000000" transform="translate(0,0)"/>
<path d="" fill="#000000" transform="translate(0,0)"/>
<path d="" fill="#000000" transform="translate(0,0)"/>
<path d="" fill="#000000" transform="translate(0,0)"/>
<path d="" fill="#000000" transform="translate(0,0)"/>
<path d="" fill="#000000" transform="translate(0,0)"/>
<path d="" fill="#000000" transform="translate(0,0)"/>
<path d="" fill="#000000" transform="translate(0,0)"/>
<path d="" fill="#000000" transform="translate(0,0)"/>
<path d="" fill="#000000" transform="translate(0,0)"/>
<path d="" fill="#000000" transform="translate(0,0)"/>
<path d="" fill="#000000" transform="translate(0,0)"/>
<path d="" fill="#000000" transform="translate(0,0)"/>
<path d="" fill="#000000" transform="translate(0,0)"/>
<path d="" fill="#000000" transform="translate(0,0)"/>
<path d="" fill="#000000" transform="translate(0,0)"/>
<path d="" fill="#000000" transform="translate(0,0)"/>
<path d="" fill="#000000" transform="translate(0,0)"/>
<path d="" fill="#000000" transform="translate(0,0)"/>
<path d="" fill="#000000" transform="translate(0,0)"/>
<path d="" fill="#000000" transform="translate(0,0)"/>
<path d="" fill="#000000" transform="translate(0,0)"/>
<path d="" fill="#000000" transform="translate(0,0)"/>
<path d="" fill="#000000" transform="translate(0,0)"/>
<path d="" fill="#000000" transform="translate(0,0)"/>
<path d="" fill="#000000" transform="translate(0,0)"/>
<path d="" fill="#000000" transform="translate(0,0)"/>
<path d="" fill="#000000" transform="translate(0,0)"/>
<path d="" fill="#000000" transform="translate(0,0)"/>
<path d="" fill="#000000" transform="translate(0,0)"/>
<path d="" fill="#000000" transform="translate(0,0)"/>
<path d="" fill="#000000" transform="translate(0,0)"/>
<path d="" fill="#000000" transform="translate(0,0)"/>
<path d="" fill="#000000" transform="translate(0,0)"/>
<path d="" fill="#000000" transform="translate(0,0)"/>
<path d="" fill="#000000" transform="translate(0,0)"/>
<path d="" fill="#000000" transform="translate(0,0)"/>
<path d="" fill="#000000" transform="translate(0,0)"/>
<path d="" fill="#000000" transform="translate(0,0)"/>
<path d="" fill="#000000" transform="translate(0,0)"/>
<path d="" fill="#000000" transform="translate(0,0)"/>
<path d="" fill="#000000" transform="translate(0,0)"/>
<path d="" fill="#000000" transform="translate(0,0)"/>
<path d="" fill="#000000" transform="translate(0,0)"/>
<path d="" fill="#000000" transform="translate(0,0)"/>
<path d="" fill="#000000" transform="translate(0,0)"/>
<path d="" fill="#000000" transform="translate(0,0)"/>
<path d="" fill="#000000" transform="translate(0,0)"/>
<path d="" fill="#000000" transform="translate(0,0)"/>
<path d="" fill="#000000" transform="translate(0,0)"/>
<path d="" fill="#000000" transform="translate(0,0)"/>
<path d="" fill="#000000" transform="translate(0,0)"/>
<path d="" fill="#000000" transform="translate(0,0)"/>
<path d="" fill="#000000" transform="translate(0,0)"/>
<path d="" fill="#000000" transform="translate(0,0)"/>
<path d="" fill="#000000" transform="translate(0,0)"/>
<path d="" fill="#000000" transform="translate(0,0)"/>
<path d="" fill="#000000" transform="translate(0,0)"/>
<path d="" fill="#000000" transform="translate(0,0)"/>
<path d="" fill="#000000" transform="translate(0,0)"/>
<path d="" fill="#000000" transform="translate(0,0)"/>
<path d="" fill="#000000" transform="translate(0,0)"/>
<path d="" fill="#000000" transform="translate(0,0)"/>
<path d="" fill="#000000" transform="translate(0,0)"/>
<path d="" fill="#000000" transform="translate(0,0)"/>
<path d="" fill="#000000" transform="translate(0,0)"/>
<path d="" fill="#000000" transform="translate(0,0)"/>
<path d="" fill="#000000" transform="translate(0,0)"/>
<path d="" fill="#000000" transform="translate(0,0)"/>
<path d="" fill="#000000" transform="translate(0,0)"/>
<path d="" fill="#000000" transform="translate(0,0)"/>
<path d="" fill="#000000" transform="translate(0,0)"/>
<path d="" fill="#000000" transform="translate(0,0)"/>
<path d="" fill="#000000" transform="translate(0,0)"/>
<path d="" fill="#000000" transform="translate(0,0)"/>
<path d="" fill="#000000" transform="translate(0,0)"/>
<path d="" fill="#000000" transform="translate(0,0)"/>
<path d="" fill="#000000" transform="translate(0,0)"/>
<path d="" fill="#000000" transform="translate(0,0)"/>
<path d="" fill="#000000" transform="translate(0,0)"/>
<path d="" fill="#000000" transform="translate(0,0)"/>
<path d="" fill="#000000" transform="translate(0,0)"/>
<path d="" fill="#000000" transform="translate(0,0)"/>
<path d="" fill="#000000" transform="translate(0,0)"/>
<path d="" fill="#000000" transform="translate(0,0)"/>
<path d="" fill="#000000" transform="translate(0,0)"/>
<path d="" fill="#000000" transform="translate(0,0)"/>
<path d="" fill="#000000" transform="translate(0,0)"/>
<path d="" fill="#000000" transform="translate(0,0)"/>
<path d="" fill="#000000" transform="translate(0,0)"/>
<path d="" fill="#000000" transform="translate(0,0)"/>
</svg>
