<?xml version="1.0" encoding="UTF-8"?>
<svg version="1.1" xmlns="http://www.w3.org/2000/svg" width="1296" height="1296">
<path d="M0 0 C427.68 0 855.36 0 1296 0 C1296 427.68 1296 855.36 1296 1296 C868.32 1296 440.64 1296 0 1296 C0 868.32 0 440.64 0 0 Z " fill="#000000" transform="translate(0,0)"/>
<path d="M0 0 C1.32267112 1.13407733 2.63603795 2.27914478 3.9375 3.4375 C4.86949219 4.15873047 4.86949219 4.15873047 5.8203125 4.89453125 C11.32217123 9.21742025 15.70944336 14.75333009 17.9375 21.4375 C18.36257675 28.02618967 17.71413288 31.23369283 13.3125 36.3125 C9.43812503 38.14773025 6.00517721 37.52787254 1.9375 36.4375 C-0.39496902 35.31993972 -2.55065391 34.08782268 -4.7265625 32.69140625 C-13.36574031 28.05398806 -24.22066379 28.05272074 -33.60546875 30.27734375 C-57.36491984 38.70811672 -71.51213286 60.7115492 -82.08105469 82.34716797 C-86.74029468 92.27065374 -91.36096032 102.51547187 -91.3125 113.625 C-91.31765625 114.81480469 -91.3228125 116.00460937 -91.328125 117.23046875 C-91.07914342 120.2365552 -90.64033544 121.91421554 -89.0625 124.4375 C-81.68494595 124.0686223 -77.44927617 119.90518384 -72.52734375 114.81640625 C-64.45140254 105.87928647 -58.19197124 95.76421351 -52.0625 85.4375 C-51.60955566 84.67743652 -51.15661133 83.91737305 -50.68994141 83.13427734 C-45.2871749 73.9811915 -40.64361958 64.73876392 -36.83691406 54.8046875 C-34.40016229 48.6069206 -31.42134267 42.96868981 -25.0625 40.0625 C-16.01701589 36.49230892 -6.67726464 37.89346708 2.20703125 41.23828125 C8.53832695 44.01897907 14.10421657 46.82650533 16.9375 53.4375 C19.26915051 65.97523475 14.05955599 79.43383487 10.9375 91.4375 C10.33157942 93.8226685 9.73096332 96.2090644 9.13378906 98.59643555 C8.66233377 100.47614862 8.18119002 102.35342452 7.69921875 104.23046875 C6.14879037 110.75816978 4.96687582 117.23146191 6.5 123.875 C7.97072354 125.73209603 7.97072354 125.73209603 11.0625 126.4375 C20.59025828 126.4375 27.06173196 119.32040341 33.42919922 112.98486328 C37.91277641 108.38516885 41.95748288 103.47359583 45.9375 98.4375 C46.80955078 97.3532373 46.80955078 97.3532373 47.69921875 96.24707031 C49.59646118 93.87153983 51.45778827 91.47134267 53.3125 89.0625 C53.89563965 88.33289063 54.4787793 87.60328125 55.07958984 86.8515625 C64.43077899 74.43003481 66.01800401 59.39497609 67.9375 44.4375 C72.1608917 11.52715241 72.1608917 11.52715241 81.9375 1.4375 C82.46085937 0.88707031 82.98421875 0.33664062 83.5234375 -0.23046875 C89.88364611 -6.27714595 96.97587713 -8.7698363 105.6875 -9.0625 C115.3832112 -8.74530116 125.38410216 -6.99463872 132.703125 -0.22265625 C136.87381701 5.38666054 136.53016296 11.77404623 135.9375 18.4375 C135.0477329 22.54089649 133.79258822 26.46641136 132.4375 30.4375 C131.7764635 32.43592308 131.12001082 34.43586981 130.46875 36.4375 C130.17548828 37.30375 129.88222656 38.17 129.58007812 39.0625 C128.76338737 41.67096331 128.76338737 41.67096331 128.9375 45.4375 C129.37578125 44.85484375 129.8140625 44.2721875 130.265625 43.671875 C138.8700854 32.54903595 148.77443408 22.98370477 159.9375 14.4375 C160.72382812 13.83421875 161.51015625 13.2309375 162.3203125 12.609375 C179.3745063 0.11422311 197.58601226 -6.95642294 218.9375 -4.5625 C228.62376579 -2.60439125 236.55464716 2.74276485 242.3125 10.75 C251.74512018 26.41863018 248.07416049 45.37399015 245.125 62.5 C244.86003289 64.10460436 244.59635919 65.70942285 244.33398438 67.31445312 C243.30039556 73.59208972 242.22170129 79.86131222 241.10400391 86.12451172 C240.90173943 87.25922157 240.90173943 87.25922157 240.69538879 88.41685486 C240.44249409 89.82949976 240.18754428 91.24177921 239.92997742 92.65357971 C235.79584537 115.27683592 235.79584537 115.27683592 241.453125 136.73046875 C245.26093629 141.10945174 249.52343508 143.05562629 255.27734375 143.69921875 C273.64772251 144.48151094 290.79781088 134.66649921 303.94433594 122.59472656 C313.52802616 113.53545168 322.0747964 104.00788961 329.9375 93.4375 C338.47838752 82.02974114 338.47838752 82.02974114 343.9375 80.4375 C350.10560886 79.74110061 354.95421755 80.54327927 359.9375 84.4375 C363.19401407 88.30962905 364.25803499 92.17194483 364 97.1875 C359.63231175 124.8215276 332.64915838 151.439368 311.14453125 167.26953125 C305.59337072 171.02214281 299.85127265 174.29667687 293.9375 177.4375 C292.78121094 178.06785156 291.62492188 178.69820312 290.43359375 179.34765625 C275.11785526 187.40767058 259.21393875 190.80071874 242 190.75 C240.91009766 190.76611328 239.82019531 190.78222656 238.69726562 190.79882812 C221.3655112 190.80912626 203.77827436 184.23151381 191.1875 172.125 C173.2851546 153.21761065 169.31015631 129.99791938 169.58203125 104.88671875 C170.08829344 88.86362713 173.52723146 72.87892511 177.30859375 57.35009766 C178.23129001 53.07689643 178.65225749 48.79482518 178.9375 44.4375 C160.39670541 49.82679821 148.30615883 68.85808073 139.34375 84.91015625 C129.04165365 103.98980484 121.90063503 124.54575636 116.65917969 145.55517578 C114.49385361 153.93714894 111.3166775 160.59350005 103.9375 165.4375 C97.30945593 169.08912511 90.4399515 169.49246772 83.13671875 167.78125 C74.40992145 164.9809499 68.34254762 160.62433527 64.0625 152.4375 C60.91979425 145.75650315 59.63317843 139.30211502 59.3125 132 C59.27382813 131.26845703 59.23515625 130.53691406 59.1953125 129.78320312 C59.10216016 128.00166468 59.01879714 126.21961878 58.9375 124.4375 C58.33164062 125.24832031 57.72578125 126.05914063 57.1015625 126.89453125 C45.46625626 142.33942031 32.0949428 158.81433429 12.0703125 163.04296875 C-0.50975256 164.62724128 -11.32448303 163.78123936 -21.8125 156.3125 C-33.30177673 146.65246411 -37.15230888 133.83933568 -39.0625 119.4375 C-39.52398438 120.44167969 -39.98546875 121.44585938 -40.4609375 122.48046875 C-49.77511582 142.22545871 -63.53204206 159.60706964 -84.75 167.375 C-95.90408459 170.24883822 -108.73566018 169.60091991 -119.0625 164.4375 C-132.24395068 156.56771206 -140.58827448 145.66025414 -146.0625 131.4375 C-146.39983154 131.92105957 -146.73716309 132.40461914 -147.0847168 132.90283203 C-148.63703357 135.12467671 -150.19348276 137.34359618 -151.75 139.5625 C-152.28044922 140.32304688 -152.81089844 141.08359375 -153.35742188 141.8671875 C-163.0578172 155.67388513 -174.93933613 166.02591036 -191.76025391 170.03833008 C-205.57605683 172.43375296 -220.51556909 171.78942881 -232.25 163.75 C-246.00365365 152.53808932 -250.05583304 139.32145732 -253.0625 122.4375 C-255.47074659 87.63916728 -248.32348191 34.28059008 -225.25 6.234375 C-223.58915486 4.70699063 -222.01388587 3.55965954 -220.0625 2.4375 C-219.03125 1.81875 -218 1.2 -216.9375 0.5625 C-206.11161337 -3.42219441 -194.25092805 0.25453547 -184.0625 4.4375 C-177.2449278 7.60280138 -172.86894546 10.92970615 -169.0625 17.4375 C-167.00979289 23.59562132 -168.06709121 29.85914359 -169.5 36.0625 C-169.66902832 36.81192871 -169.83805664 37.56135742 -170.01220703 38.33349609 C-171.97915132 46.66225017 -174.5281323 54.82246995 -177.03097534 63.00204468 C-179.75413667 71.90854709 -182.31001472 80.83540235 -184.5625 89.875 C-184.80532715 90.84453613 -185.0481543 91.81407227 -185.29833984 92.81298828 C-187.9944108 103.85450831 -190.75752643 115.99661821 -185.0625 126.4375 C-181.39176905 126.98420461 -179.18914888 127.06932306 -175.91015625 125.23046875 C-166.59814662 118.24237013 -159.36188301 109.14768884 -153.0625 99.4375 C-152.54042969 98.68726563 -152.01835938 97.93703125 -151.48046875 97.1640625 C-149.63637107 93.61811159 -148.98556844 90.01288599 -148.25 86.125 C-141.36715863 52.970178 -120.95676466 19.23051678 -92.40625 0.46875 C-64.85558304 -16.26763647 -27.04093688 -20.67027548 0 0 Z " fill="#FAFAFA" transform="translate(702.0625,570.5625)"/>
<path d="M0 0 C6.27959083 5.16321913 11.1636549 10.27721064 12.05859375 18.6015625 C12.53167953 28.32132497 9.4860254 37.38947866 6.40649414 46.49926758 C4.89961584 51.00805716 3.501516 55.54298049 2.140625 60.09765625 C1.7758329 61.31290482 1.7758329 61.31290482 1.40367126 62.55270386 C0.6217068 65.15966733 -0.15806969 67.76727784 -0.9375 70.375 C-1.20517181 71.26921661 -1.47284363 72.16343323 -1.74862671 73.08474731 C-5.95653431 87.14271601 -10.15055894 101.20429663 -14.1875 115.3125 C-14.46899902 116.29573242 -14.75049805 117.27896484 -15.04052734 118.29199219 C-19.47887477 133.84720202 -23.65453306 149.46200863 -27.63549805 165.14025879 C-28.24071231 167.52190139 -28.84790407 169.90303599 -29.45507812 172.28417969 C-34.3043759 191.32350313 -39.11301715 210.36760218 -43.3125 229.5625 C-43.59544922 230.85115967 -43.87839844 232.13981934 -44.16992188 233.4675293 C-45.44535027 239.40654394 -46.57101662 245.26795566 -47.1875 251.3125 C-44.18295652 248.49005007 -41.60217093 245.60932307 -39.125 242.3125 C-20.07295018 217.52040953 7.47454344 187.29355709 39.8125 182.3125 C54.28916905 181.35437506 65.49807823 183.71737759 77.8125 191.3125 C81.35745096 194.49092937 85.50819889 198.33386033 86.015625 203.30078125 C86.03882813 204.45126953 86.03882813 204.45126953 86.0625 205.625 C86.08828125 206.38425781 86.1140625 207.14351562 86.140625 207.92578125 C85.59562587 211.89000113 83.71791729 214.54560854 80.69018555 217.11010742 C79.8887915 217.64482666 79.08739746 218.1795459 78.26171875 218.73046875 C77.37274902 219.32649902 76.4837793 219.9225293 75.56787109 220.53662109 C71.28956224 223.29405673 66.97379256 225.98033727 62.625 228.625 C35.02633528 245.58989702 7.45256455 264.96493343 -15.1875 288.3125 C-13.84886697 293.16775818 -11.86341789 296.43465832 -8.75 300.375 C-8.31260498 300.93082764 -7.87520996 301.48665527 -7.42456055 302.05932617 C-2.49874608 308.27180563 2.63565088 314.30896025 7.8125 320.3125 C8.42738281 321.02921875 9.04226563 321.7459375 9.67578125 322.484375 C20.91341372 335.46531561 32.61316611 348.29431668 45.8125 359.3125 C46.76511719 360.15039062 47.71773437 360.98828125 48.69921875 361.8515625 C71.19320406 381.23174451 97.11069687 396.5495686 123.8125 409.3125 C124.58722656 409.69390137 125.36195313 410.07530273 126.16015625 410.46826172 C152.54277693 423.43717521 183.63070599 431.4697763 213.03588867 431.55273438 C215.10962233 431.56242812 217.18235779 431.59351249 219.25585938 431.625 C226.99563949 431.68691267 233.53868568 430.96298283 240.8125 428.3125 C243.52775928 427.52790686 246.26191846 426.82518603 249 426.125 C249.65935547 425.94775391 250.31871094 425.77050781 250.99804688 425.58789062 C256.83346479 424.09885295 261.72081179 423.16799136 267.125 426.125 C269.83871232 428.33383561 271.54889223 429.9310939 272.21875 433.44140625 C272.54864284 442.00487444 269.35533371 447.3402319 263.75 453.625 C241.55076302 475.22425761 206.52448862 481.72919306 176.8125 481.6875 C175.81286224 481.68668427 175.81286224 481.68668427 174.79302979 481.68585205 C149.67562521 481.59256758 124.70157754 475.65258669 101.8125 465.3125 C100.9157959 464.90789551 100.0190918 464.50329102 99.09521484 464.08642578 C79.73369293 455.25468796 60.63764226 445.46044922 43.8125 432.3125 C42.30429687 431.18134766 42.30429687 431.18134766 40.765625 430.02734375 C16.51063702 411.79489017 -7.65390492 390.35794492 -26.1875 366.3125 C-27.15539369 365.12997164 -28.12703097 363.95050156 -29.1015625 362.7734375 C-35.54025623 354.95796675 -41.0994653 347.08653317 -46.1875 338.3125 C-47.35183919 336.37360041 -48.51830238 334.43597373 -49.6875 332.5 C-50.52137884 331.10449249 -51.35481145 329.70871808 -52.1875 328.3125 C-53.70765853 341.18450293 -54.51006202 353.86983191 -54.44824219 366.83178711 C-54.43746042 369.50983065 -54.44825584 372.18721002 -54.4609375 374.86523438 C-54.46793006 384.5557596 -53.97436903 393.97185539 -52.65283203 403.57470703 C-50.81234587 418.35846521 -50.81234587 418.35846521 -53.875 424.9375 C-60.28811854 431.52394607 -65.40388417 433.36639991 -74.4375 433.6875 C-86.43867725 433.46729491 -96.21252541 428.11841182 -104.875 420.0625 C-121.46673332 402.47449632 -123.9207948 374.27053543 -126.1875 351.3125 C-126.33433228 349.88224487 -126.33433228 349.88224487 -126.48413086 348.4230957 C-127.60307992 335.60958176 -127.38616832 322.7259136 -127.375 309.875 C-127.37439575 308.59972443 -127.3737915 307.32444885 -127.37316895 306.01052856 C-127.33030984 272.73905548 -126.15509927 239.1162847 -118.87280273 206.52270508 C-118.11134462 202.95576075 -117.56809097 199.39547633 -117.06152344 195.78564453 C-112.85984844 166.59881337 -104.62413177 137.21035443 -95.1875 109.3125 C-94.81834473 108.21728027 -94.44918945 107.12206055 -94.06884766 105.99365234 C-85.9799305 82.2246804 -76.98480026 58.51332665 -65.1875 36.3125 C-64.54733415 35.04795862 -63.90935599 33.78230763 -63.2734375 32.515625 C-55.97464569 18.15177802 -47.18553097 1.81274725 -31.1875 -3.6875 C-20.91281594 -6.93213707 -9.32604375 -4.93731728 0 0 Z " fill="#FAFBFB" transform="translate(353.1875,352.6875)"/>
<path d="M0 0 C0.92965576 0.01208496 1.85931152 0.02416992 2.81713867 0.03662109 C13.55696234 0.34564035 22.94993501 2.82689441 30.8125 10.5 C34.86054318 15.37417444 36.28162716 20.03531727 36.2265625 26.28515625 C34.08618428 42.90337581 24.41314838 59.64283756 11.8125 70.5 C3.1395837 76.79722065 -4.63337021 77.25309795 -15.1875 76.5 C-23.12975048 74.73976825 -29.71742408 70.21729161 -34.53515625 63.66796875 C-39.12232933 56.12132916 -39.33130908 47.36920594 -37.3515625 38.94140625 C-33.0192095 24.97029474 -25.63137552 8.57798786 -12.24194336 1.28955078 C-8.25839182 -0.24138275 -4.21613014 -0.08724336 0 0 Z " fill="#FAFAFA" transform="translate(527.1875,482.5)"/>
<path d="M0 0 C1.10988281 -0.01417969 2.21976563 -0.02835938 3.36328125 -0.04296875 C6.7836836 0.19416843 9.49723443 0.96641499 12.6875 2.1875 C12.6875 2.5175 12.6875 2.8475 12.6875 3.1875 C9.39590684 3.24540353 6.10444397 3.28106261 2.8125 3.3125 C1.40677734 3.33763672 1.40677734 3.33763672 -0.02734375 3.36328125 C-1.37119141 3.37294922 -1.37119141 3.37294922 -2.7421875 3.3828125 C-3.56960449 3.39328613 -4.39702148 3.40375977 -5.24951172 3.41455078 C-7.3125 3.1875 -7.3125 3.1875 -9.3125 1.1875 C-6.01262125 0.08754042 -3.47217713 0.02002409 0 0 Z " fill="#CCCCCB" transform="translate(688.3125,608.8125)"/>
<path d="M0 0 C0.66 0.33 1.32 0.66 2 1 C1.14535156 1.80824219 0.29070313 2.61648438 -0.58984375 3.44921875 C-1.7062542 4.5281028 -2.8221108 5.60756017 -3.9375 6.6875 C-4.50146484 7.21794922 -5.06542969 7.74839844 -5.64648438 8.29492188 C-8.78778253 11.36097936 -10.73537014 13.39885498 -11 18 C-13 18 -15 18 -17 18 C-11.51481106 11.80376805 -5.92437965 5.77909513 0 0 Z " fill="#CCCDCE" transform="translate(851,594)"/>
<path d="M0 0 C0.33 1.32 0.66 2.64 1 4 C-4.33333333 8.66666667 -9.66666667 13.33333333 -15 18 C-15.66 17.67 -16.32 17.34 -17 17 C-16.35933594 16.443125 -15.71867188 15.88625 -15.05859375 15.3125 C-9.61569847 10.5104225 -4.61312349 5.6060143 0 0 Z " fill="#D8D8D8" transform="translate(743,675)"/>
<path d="M0 0 C0 3.67819168 -0.76843318 4.22382655 -3.1875 6.875 C-3.82171875 7.57367187 -4.4559375 8.27234375 -5.109375 8.9921875 C-7.35961863 11.38190904 -9.64357276 13.71497964 -12 16 C-12.66 15.67 -13.32 15.34 -14 15 C-9.38 10.05 -4.76 5.1 0 0 Z " fill="#D8D8D9" transform="translate(331,576)"/>
<path d="M0 0 C4.95 0 9.9 0 15 0 C15.33 0.66 15.66 1.32 16 2 C11.7617491 4.11912545 6.88187654 3.25196473 2.5 2 C1.2625 1.505 1.2625 1.505 0 1 C0 0.67 0 0.34 0 0 Z " fill="#DDDDDD" transform="translate(506,556)"/>
<path d="M0 0 C2.69082872 0.17635452 5.32851446 0.61835921 8 1 C8 1.33 8 1.66 8 2 C1.20336964 3.26750669 -5.54298684 3.11139726 -12.4375 3.0625 C-13.64599609 3.05798828 -14.85449219 3.05347656 -16.09960938 3.04882812 C-19.06645789 3.03710145 -22.0332027 3.02068896 -25 3 C-25 2.67 -25 2.34 -25 2 C-24.27820557 1.97494385 -23.55641113 1.9498877 -22.81274414 1.92407227 C-19.562465 1.80848698 -16.31250312 1.68559226 -13.0625 1.5625 C-11.92619141 1.52318359 -10.78988281 1.48386719 -9.61914062 1.44335938 C-7.99975586 1.38051758 -7.99975586 1.38051758 -6.34765625 1.31640625 C-5.34742432 1.27974854 -4.34719238 1.24309082 -3.31665039 1.20532227 C-1.03930812 1.25328159 -1.03930812 1.25328159 0 0 Z " fill="#BBBBBB" transform="translate(956,758)"/>
<path d="M0 0 C0.66 0.33 1.32 0.66 2 1 C1.16855469 1.90492188 1.16855469 1.90492188 0.3203125 2.828125 C-0.40414063 3.62734375 -1.12859375 4.4265625 -1.875 5.25 C-2.59429687 6.03890625 -3.31359375 6.8278125 -4.0546875 7.640625 C-5.78035257 9.73360031 -6.83309781 11.58284546 -8 14 C-10.125 15.75 -10.125 15.75 -12 17 C-10.67288846 13.26295953 -9.03431904 10.46876061 -6.5625 7.375 C-5.96566406 6.61960937 -5.36882812 5.86421875 -4.75390625 5.0859375 C-3.24244136 3.28833783 -1.6926397 1.62534821 0 0 Z " fill="#D3D3D3" transform="translate(510,487)"/>
<path d="M0 0 C4.62 0 9.24 0 14 0 C13.01 0.33 12.02 0.66 11 1 C11 1.66 11 2.32 11 3 C9.54257537 3.08096803 8.08387193 3.13917774 6.625 3.1875 C5.81289063 3.22230469 5.00078125 3.25710938 4.1640625 3.29296875 C3.44992187 3.19628906 2.73578125 3.09960938 2 3 C1.34 2.01 0.68 1.02 0 0 Z " fill="#E8E9E9" transform="translate(557,785)"/>
<path d="M0 0 C1.62418745 -0.08090971 3.24951745 -0.13914995 4.875 -0.1875 C5.77992188 -0.22230469 6.68484375 -0.25710938 7.6171875 -0.29296875 C8.79667969 -0.14794922 8.79667969 -0.14794922 10 0 C10.66 0.99 11.32 1.98 12 3 C8.37 3 4.74 3 1 3 C0.67 2.01 0.34 1.02 0 0 Z " fill="#E6E6E6" transform="translate(672,596)"/>
<path d="M0 0 C2 2 2 2 2.01171875 4.0234375 C1.90472656 4.79945313 1.79773438 5.57546875 1.6875 6.375 C1.58824219 7.14585937 1.48898437 7.91671875 1.38671875 8.7109375 C1.02612969 10.84533338 0.55839834 12.90958571 0 15 C-0.66 15 -1.32 15 -2 15 C-1.85816304 13.24967156 -1.71136571 11.49974466 -1.5625 9.75 C-1.48128906 8.77546875 -1.40007812 7.8009375 -1.31640625 6.796875 C-1.04925416 4.43538247 -0.64628032 2.28098935 0 0 Z " fill="#D3D3D3" transform="translate(453,642)"/>
<path d="M0 0 C-0.66 3.63 -1.32 7.26 -2 11 C-5 8 -5 8 -5.375 5.5 C-5 3 -5 3 -3.625 1.1875 C-2 0 -2 0 0 0 Z " fill="#E1E2E1" transform="translate(333,487)"/>
<path d="M0 0 C0 1.32 0 2.64 0 4 C-6.625 4.25 -6.625 4.25 -10 2 C-8.7090864 1.66376204 -7.41723903 1.33110751 -6.125 1 C-5.40570312 0.814375 -4.68640625 0.62875 -3.9453125 0.4375 C-2 0 -2 0 0 0 Z " fill="#DBDCDC" transform="translate(976,712)"/>
<path d="M0 0 C1.67542976 0.28604898 3.34385343 0.61781233 5 1 C5.33 2.98 5.66 4.96 6 7 C5.01 7.495 5.01 7.495 4 8 C3.34 6.35 2.68 4.7 2 3 C1.01 3.495 1.01 3.495 0 4 C-0.33 3.01 -0.66 2.02 -1 1 C-0.67 0.67 -0.34 0.34 0 0 Z " fill="#DDDDDE" transform="translate(554,699)"/>
<path d="M0 0 C0.33 0.66 0.66 1.32 1 2 C-0.61594832 4.04119788 -2.2856382 6.04072937 -4 8 C-4.66 8 -5.32 8 -6 8 C-6 5.69 -6 3.38 -6 1 C-5.67 2.32 -5.34 3.64 -5 5 C-3.35 3.35 -1.7 1.7 0 0 Z " fill="#BEBFBF" transform="translate(311,599)"/>
<path d="M0 0 C0.66 0.33 1.32 0.66 2 1 C0.71034824 2.37562854 -0.62689293 3.70766393 -2 5 C-2.66 5 -3.32 5 -4 5 C-5.66965451 5.31802943 -7.33678518 5.64984951 -9 6 C-3.30379747 1.25316456 -3.30379747 1.25316456 0 0 Z " fill="#D6D7D7" transform="translate(881,573)"/>
<path d="M0 0 C0.99 0 1.98 0 3 0 C1.25 5.75 1.25 5.75 -1 8 C-1 7.34 -1 6.68 -1 6 C-1.66 5.67 -2.32 5.34 -3 5 C-2.34 5 -1.68 5 -1 5 C-0.67 3.35 -0.34 1.7 0 0 Z " fill="#E3E3E4" transform="translate(620,645)"/>
<path d="M0 0 C1.65 1.65 3.3 3.3 5 5 C4.67 5.66 4.34 6.32 4 7 C2.68 6.67 1.36 6.34 0 6 C0 4.02 0 2.04 0 0 Z " fill="#DEDEDE" transform="translate(832,569)"/>
<path d="M0 0 C0.66 0 1.32 0 2 0 C1.25 6.75 1.25 6.75 -1 9 C-1.09765625 2.84765625 -1.09765625 2.84765625 -1 1 C-0.67 0.67 -0.34 0.34 0 0 Z " fill="#DDDDDC" transform="translate(345,437)"/>
<path d="M0 0 C2.97 0 5.94 0 9 0 C9 0.99 9 1.98 9 3 C2.25 2.25 2.25 2.25 0 0 Z " fill="#CDCDCC" transform="translate(917,756)"/>
<path d="M0 0 C0.66 1.32 1.32 2.64 2 4 C2.66 4 3.32 4 4 4 C4 4.99 4 5.98 4 7 C2.02 7.99 2.02 7.99 0 9 C0 6.03 0 3.06 0 0 Z " fill="#D8D9D9" transform="translate(881,616)"/>
<path d="M0 0 C0.66 0 1.32 0 2 0 C1.67 2.64 1.34 5.28 1 8 C0.34 7.67 -0.32 7.34 -1 7 C-1.04254356 5.00045254 -1.04080783 2.99958364 -1 1 C-0.67 0.67 -0.34 0.34 0 0 Z " fill="#EDEDED" transform="translate(305,592)"/>
<path d="M0 0 C0.66 1.32 1.32 2.64 2 4 C0.02 5.32 -1.96 6.64 -4 8 C-2.87548273 5.0280615 -1.77706209 2.66559313 0 0 Z " fill="#CECECF" transform="translate(782,574)"/>
<path d="M0 0 C0 4.38968456 -2.12805101 5.76905739 -5 9 C-5.66 8.67 -6.32 8.34 -7 8 C-4.69 5.36 -2.38 2.72 0 0 Z " fill="#CDCECE" transform="translate(309,357)"/>
<path d="M0 0 C1.32 0 2.64 0 4 0 C4 0.66 4 1.32 4 2 C2.36935236 3.05771739 0.69719127 4.05273046 -1 5 C-1.99 5.66 -2.98 6.32 -4 7 C-2.79618552 4.50638429 -1.54571278 2.31856917 0 0 Z " fill="#D4D4D5" transform="translate(762,650)"/>
<path d="M0 0 C0.66 0 1.32 0 2 0 C2 1.65 2 3.3 2 5 C0 5 -2 5 -4 5 C-2.71937515 3.2925002 -1.38232443 1.62626404 0 0 Z " fill="#D9DADA" transform="translate(838,607)"/>
<path d="M0 0 C2.875 -0.125 2.875 -0.125 6 0 C6.66 0.66 7.32 1.32 8 2 C5.36 2.33 2.72 2.66 0 3 C0 2.01 0 1.02 0 0 Z " fill="#DDDCDC" transform="translate(523,556)"/>
</svg>
